<svg width="99" height="99" viewBox="0 0 99 99" fill="none" xmlns="http://www.w3.org/2000/svg">
<path d="M70.8442 17C62.7456 17 57.1572 19.9726 49.4783 30.1571C42.2041 20.5383 36.29 17 28.2743 17C12.221 17 0 36.6469 0 60.1693C0 74.319 7.96641 82.34 18.7142 82.34C29.0724 82.34 35.3412 73.628 40.721 63.9999L47.0792 53.0043C47.7003 51.9304 48.3261 50.8592 48.9565 49.7908C49.6638 50.9793 50.3661 52.1709 51.0634 53.3653L57.4217 64.225C65.5842 78.1952 71.1469 82.34 80.5721 82.34C91.3949 82.34 98.7441 73.2828 98.7441 60.395C98.7441 35.6107 86.1309 17 70.8442 17ZM38.0153 47.6874L31.5669 58.4124C25.2534 68.9565 22.5924 71.2995 18.624 71.2995C14.4306 71.2995 11.1386 67.785 11.1386 59.7185C11.1386 43.5419 19.0754 28.4008 28.2743 28.4008C33.0599 28.4008 36.6164 30.7834 42.7911 39.9416C41.1668 42.5033 39.5747 45.0854 38.0153 47.6874ZM80.33 71.2995C75.9556 71.2995 73.0696 68.5057 67.1621 58.5021L60.8038 47.6874C58.968 44.5609 57.2493 41.721 55.6188 39.1437C62.0211 29.7453 65.8776 27.2742 70.7541 27.2742C80.0437 27.2742 87.9963 41.1078 87.9963 59.7185C87.9963 67.2445 84.8846 71.2995 80.33 71.2995Z" fill="#0180FA"/>
<path d="M95.8256 40.76H84.7981C86.8017 46.011 87.9967 52.506 87.9967 59.7185C87.9967 67.2445 84.885 71.2995 80.3303 71.2995H80.2764V82.3387L80.5718 82.34C91.3946 82.34 98.7438 73.2828 98.7438 60.395C98.7438 53.234 97.691 46.5898 95.8256 40.76Z" fill="url(#paint0_linear_4578_1042)"/>
<path d="M27.6361 17.0107C12.2587 17.5123 0.547587 36.0795 0.0185547 58.5802H11.1519C11.5039 43.2127 18.9255 29.0881 27.6361 28.4248V17.0107Z" fill="url(#paint1_linear_4578_1042)"/>
<path d="M49.4781 30.1571L49.4827 30.1512C51.0928 32.2783 52.9464 34.9223 55.6218 39.1404L55.6185 39.1437C57.249 41.7216 58.9677 44.5609 60.8035 47.6874L67.1618 58.5021C73.0693 68.5057 75.9553 71.2995 80.3297 71.2995C80.5337 71.2995 80.7357 71.2916 80.9337 71.2751V82.3367C80.8133 82.3387 80.6923 82.34 80.5712 82.34C71.1466 82.34 65.5839 78.1945 57.4214 64.225L51.0632 53.366L50.6519 52.6631L50.6657 52.64C49.0958 49.8845 45.661 44.2679 42.7875 39.9469L42.7908 39.9416L42.3828 39.341C41.5544 38.1088 40.7859 37.0066 40.1377 36.14L40.0943 36.1558C35.4844 30.1023 32.3181 28.4008 28.274 28.4008C28.0608 28.4008 27.8476 28.4088 27.6357 28.4253V17.0106C27.8476 17.004 28.0608 17 28.274 17C36.2898 17 42.2039 20.5376 49.4781 30.1571Z" fill="url(#paint2_linear_4578_1042)"/>
<defs>
<linearGradient id="paint0_linear_4578_1042" x1="81.8424" y1="82.34" x2="105.911" y2="56.228" gradientUnits="userSpaceOnUse">
<stop offset="0.427" stop-color="#0278F1"/>
<stop offset="0.917" stop-color="#0180FA"/>
</linearGradient>
<linearGradient id="paint1_linear_4578_1042" x1="27.6361" y1="20.2579" x2="-1.20576" y2="57.6422" gradientUnits="userSpaceOnUse">
<stop offset="0.427" stop-color="#0165E0"/>
<stop offset="0.917" stop-color="#0180FA"/>
</linearGradient>
<linearGradient id="paint2_linear_4578_1042" x1="18.2112" y1="35.9486" x2="87.5348" y2="63.792" gradientUnits="userSpaceOnUse">
<stop stop-color="#0064E0"/>
<stop offset="0.656" stop-color="#0066E2"/>
<stop offset="1" stop-color="#0278F1"/>
</linearGradient>
</defs>
</svg>
